<?xml version="1.0" standalone="no"?>
<!DOCTYPE svg PUBLIC "-//W3C//DTD SVG 20010904//EN"
 "http://www.w3.org/TR/2001/REC-SVG-20010904/DTD/svg10.dtd">
<svg version="1.0" xmlns="http://www.w3.org/2000/svg"
 width="800.000000pt" height="792.000000pt" viewBox="0 0 800.000000 792.000000"
 preserveAspectRatio="xMidYMid meet">

<g transform="translate(0.000000,792.000000) scale(0.100000,-0.100000)"
fill="#000000" stroke="none">
<path d="M3680 7866 l-85 -33 -3 -307 c-1 -168 -6 -306 -10 -306 -29 0 -317
-56 -416 -81 -843 -213 -1572 -754 -2023 -1502 -186 -309 -337 -702 -406
-1054 l-22 -113 -246 0 c-188 0 -248 -3 -252 -12 -2 -7 -46 -119 -96 -248
l-91 -235 34 -90 34 -90 286 -3 285 -2 5 -33 c3 -17 10 -84 16 -147 122 -1279
1002 -2385 2225 -2799 199 -67 569 -151 666 -151 15 0 31 -6 36 -13 4 -6 10
-109 13 -227 l5 -215 240 -94 240 -93 65 23 c36 12 80 28 98 36 l32 13 0 280
0 279 48 6 c774 109 1427 427 1947 949 550 552 875 1244 952 2022 l17 174 205
0 c197 0 208 1 258 24 61 29 68 41 118 194 35 109 37 112 66 112 l29 0 0 181
0 182 -354 -7 c-195 -4 -357 -3 -359 1 -3 5 -21 76 -40 158 -70 296 -147 515
-268 758 -124 250 -277 482 -449 682 -110 127 -327 337 -450 435 -469 373
-1068 625 -1650 693 l-105 12 -3 242 -2 241 -43 17 c-132 54 -449 175 -455
174 -4 0 -45 -15 -92 -33z m262 -217 l158 -62 0 -262 0 -262 98 -7 c1013 -73
1922 -633 2457 -1516 156 -258 292 -592 359 -882 l6 -28 -189 0 -189 0 -21 73
c-64 219 -187 496 -306 687 -212 341 -541 672 -880 884 -368 232 -809 377
-1247 412 l-88 7 0 -655 0 -655 113 -7 c561 -34 945 -170 1218 -433 49 -48
112 -116 138 -152 77 -105 155 -272 195 -421 l18 -65 995 3 c797 2 994 0 990
-10 -3 -7 -28 -81 -57 -164 l-51 -151 -46 -7 c-25 -3 -150 -6 -278 -6 l-232 0
-7 -137 c-4 -76 -11 -178 -17 -228 -98 -921 -604 -1755 -1379 -2270 -274 -182
-552 -311 -863 -401 -119 -34 -366 -88 -373 -82 -2 2 -4 87 -4 188 l-2 184
108 23 c60 12 160 39 224 59 723 226 1319 736 1650 1409 179 364 265 699 286
1118 l7 137 -460 0 -459 0 -12 -127 c-26 -283 -98 -471 -258 -679 -269 -348
-735 -561 -1311 -600 l-103 -7 0 -357 0 -358 -70 -7 c-39 -4 -72 -11 -75 -16
-3 -4 -17 -4 -30 1 -14 5 -54 12 -90 16 l-65 7 0 358 0 359 -700 0 c-438 0
-700 4 -700 10 0 5 18 51 41 102 115 261 233 584 309 848 47 165 110 413 110
436 0 16 -80 17 -1320 10 -838 -5 -1320 -4 -1320 2 0 5 27 79 59 163 l59 154
265 3 265 2 6 58 c13 102 64 344 101 470 184 633 589 1218 1121 1618 348 262
774 459 1180 548 65 15 129 29 142 31 l22 5 0 -188 0 -188 -117 -28 c-1031
-250 -1836 -1083 -2047 -2119 -14 -67 -26 -139 -28 -160 l-3 -37 764 0 c421 0
766 2 768 4 2 1 -1 16 -6 32 -5 16 -31 99 -57 184 -57 190 -160 474 -248 687
-36 88 -66 162 -66 166 0 4 15 6 33 5 17 0 326 0 686 1 l653 1 -2 833 c-4
1085 -2 1497 7 1497 4 0 78 -28 165 -61z m453 -1168 c182 -32 177 -31 170 -55
-3 -12 -10 -43 -15 -71 -11 -63 -44 -142 -69 -163 -23 -20 -105 -252 -94 -263
4 -4 103 -45 219 -92 277 -113 429 -206 628 -386 156 -142 149 -139 272 -102
59 17 73 26 78 46 4 15 24 35 52 51 35 21 55 44 90 104 32 55 55 82 75 90 20
9 29 19 29 36 0 12 4 25 9 29 13 8 167 -179 261 -316 165 -242 281 -494 361
-782 17 -60 28 -111 26 -114 -3 -2 -132 -5 -287 -6 l-281 -2 -33 85 c-78 200
-167 341 -300 474 -277 277 -641 433 -1146 490 -74 9 -141 16 -147 16 -10 0
-13 102 -13 475 0 261 1 475 3 475 1 0 52 -9 112 -19z m-839 -76 c60 -39 92
-173 60 -250 -19 -44 -52 -65 -140 -87 -98 -24 -103 -24 -98 11 5 35 -44 257
-64 289 -17 26 -21 23 76 46 75 18 130 15 166 -9z m1300 -95 c76 -31 118 -54
115 -62 -2 -7 -6 -30 -8 -50 -3 -21 -8 -38 -10 -38 -2 0 -14 11 -26 25 -12 13
-47 36 -79 49 l-56 25 -12 -30 c-7 -16 -11 -31 -9 -33 12 -9 92 -36 109 -36
28 0 25 -14 -10 -44 l-31 -25 -50 19 -50 20 -9 -26 c-15 -39 -14 -40 45 -64
39 -16 67 -21 95 -17 35 4 39 3 30 -12 -5 -10 -16 -23 -24 -31 -9 -7 -16 -21
-16 -31 0 -11 -3 -19 -6 -19 -3 0 -62 23 -130 51 -121 50 -124 52 -106 69 25
23 115 246 114 283 0 15 0 27 2 27 1 0 56 -22 122 -50z m-1766 -10 c0 -11 108
-139 183 -217 l51 -52 -48 -21 c-58 -24 -56 -24 -56 -2 -1 43 -15 47 -79 21
-63 -25 -73 -39 -45 -70 15 -16 12 -19 -31 -38 -26 -12 -50 -21 -54 -21 -3 0
-7 53 -9 118 -1 65 -6 149 -10 186 l-9 68 41 18 c47 21 66 24 66 10z m2068
-134 c36 -23 41 -29 29 -41 -13 -13 -32 -123 -23 -132 2 -2 27 10 55 27 33 20
51 39 51 51 0 10 2 19 5 19 8 0 95 -55 95 -60 0 -3 -52 -34 -114 -69 -91 -50
-118 -71 -135 -101 -11 -21 -21 -45 -21 -54 0 -21 -3 -20 -50 9 -45 29 -48 35
-20 52 11 7 26 26 34 42 18 33 41 241 31 279 -5 20 -4 23 7 15 7 -6 32 -22 56
-37z m-2388 -20 c0 -8 13 -25 30 -39 l29 -25 -37 -7 c-36 -6 -132 -60 -132
-74 0 -4 7 -17 16 -29 l15 -22 32 21 c18 12 44 33 58 46 l26 24 6 -43 c7 -51
6 -52 -44 -84 -41 -25 -41 -27 -11 -72 15 -22 117 51 135 96 l15 37 11 -30 c6
-16 17 -41 24 -55 13 -25 12 -26 -97 -97 l-111 -72 -9 26 c-13 40 -135 225
-163 249 l-24 21 108 70 c59 39 111 72 116 72 4 1 7 -5 7 -13z m2823 -301 l68
-62 -26 -39 c-14 -21 -28 -40 -30 -42 -2 -2 -10 11 -18 29 -8 19 -33 51 -56
72 l-43 39 -24 -23 -25 -23 43 -38 c24 -20 49 -37 56 -38 23 0 12 -16 -24 -33
-39 -19 -41 -18 -95 30 l-25 23 -25 -26 -24 -26 50 -44 c31 -28 64 -47 90 -52
l40 -8 -32 -17 c-17 -9 -38 -24 -47 -33 -18 -18 -27 -12 -161 110 -60 55 -60
55 -35 64 34 13 210 210 210 235 0 21 11 14 133 -98z m-2003 -110 l0 -175
-237 -1 c-131 0 -293 -2 -360 -4 -189 -7 -190 -4 -37 96 147 97 373 199 519
235 50 12 96 23 103 23 9 1 12 -40 12 -174z m-1058 129 c75 -48 117 -135 98
-205 -7 -27 -30 -55 -77 -98 -36 -34 -69 -61 -74 -61 -4 0 -9 9 -11 20 -4 25
-165 204 -200 222 l-28 15 65 57 c103 91 148 101 227 50z m-367 -274 c44 -27
44 -40 0 -40 -19 0 -35 -4 -35 -9 0 -5 30 -75 66 -157 101 -228 204 -489 278
-703 37 -107 65 -195 64 -196 -2 -1 -245 -5 -540 -9 l-538 -6 0 21 c0 78 100
368 194 564 106 219 220 394 369 568 l50 58 29 -35 c15 -19 44 -44 63 -56z
m471 -1817 c-2 -10 -25 -91 -51 -180 -80 -284 -209 -636 -326 -889 -21 -47
-39 -99 -39 -115 0 -16 -4 -29 -9 -29 -6 0 -37 -25 -71 -57 -65 -60 -105 -119
-124 -185 l-13 -41 -55 69 c-297 371 -499 879 -543 1367 l-7 77 621 0 c588 0
622 -1 617 -17z m3904 -32 c0 -64 -15 -178 -41 -311 -81 -407 -272 -811 -532
-1125 l-25 -30 -11 30 c-21 57 -34 74 -75 101 -23 15 -69 55 -104 88 -47 45
-62 66 -60 83 3 20 -13 33 -105 88 -60 36 -110 65 -112 65 -2 0 -76 -78 -166
-172 -89 -95 -181 -183 -203 -196 -23 -13 -59 -40 -81 -61 -75 -71 -387 -237
-421 -224 -8 3 -29 -4 -45 -16 -16 -12 -52 -26 -81 -31 -28 -6 -67 -19 -85
-30 -19 -11 -45 -20 -57 -20 -20 0 -24 6 -30 46 -3 26 -6 118 -6 205 l0 158
48 6 c328 41 546 103 792 223 179 88 279 160 420 301 225 225 347 452 395 731
9 52 18 105 21 118 l4 22 280 0 280 0 0 -49z m-5293 -201 c172 -1212 1148
-2175 2366 -2335 65 -8 134 -15 153 -15 l34 0 0 76 0 75 122 -2 c121 -1 121
-1 135 24 13 26 14 26 43 9 l30 -17 0 -572 c0 -452 -3 -573 -12 -573 -7 1 -80
27 -163 59 l-150 58 -3 245 -2 245 -93 7 c-245 18 -505 74 -767 165 -745 257
-1382 813 -1743 1518 -184 360 -267 634 -331 1091 l-6 42 187 -2 187 -3 13
-95z m4273 -1054 c0 -13 167 -179 213 -212 l28 -19 -39 -38 c-37 -36 -39 -37
-68 -23 -50 24 -206 87 -209 84 -7 -7 151 -138 167 -138 27 0 22 -16 -16 -58
l-35 -37 -9 26 c-13 33 -201 209 -224 209 -10 0 -18 3 -18 8 0 13 89 108 90
95 0 -6 12 -16 28 -21 15 -5 65 -26 112 -46 l85 -36 -72 70 c-41 39 -82 70
-93 70 -27 0 -26 5 12 50 31 37 48 43 48 16z m-3061 -71 c25 -13 108 -112 99
-120 -2 -1 -22 -12 -44 -23 l-42 -21 -6 31 c-15 74 -87 93 -149 38 -74 -64
-68 -137 13 -161 22 -7 40 -15 40 -19 0 -3 -15 -21 -34 -39 l-33 -32 -51 46
c-83 76 -91 132 -31 214 62 87 166 124 238 86z m1161 -233 c0 -109 -2 -201 -5
-204 -3 -3 -33 0 -67 7 -43 9 -67 20 -79 37 -14 18 -28 23 -66 24 -26 0 -80 9
-119 20 -97 27 -367 174 -421 230 -23 23 -55 50 -72 59 -17 8 -31 18 -31 20 0
3 194 5 430 5 l430 0 0 -198z m-930 23 c62 -32 92 -105 71 -175 -14 -47 -85
-128 -128 -146 -70 -30 -144 -6 -183 58 -26 43 -25 82 4 143 52 109 155 162
236 120z m2655 -19 c111 -85 128 -237 32 -297 -42 -26 -120 -22 -162 9 -68 50
-117 154 -101 216 8 31 53 85 80 97 39 16 113 4 151 -25z m-2439 -137 c30 -17
52 -34 49 -39 -7 -11 -37 -221 -33 -226 9 -8 88 155 88 180 0 14 2 26 4 26 4
0 71 -37 84 -46 2 -1 -12 -22 -31 -47 -18 -24 -58 -91 -87 -148 -29 -57 -54
-105 -55 -107 -1 -2 -23 7 -49 20 -31 15 -45 27 -41 36 5 15 35 216 35 236 0
20 -92 -156 -95 -183 -2 -14 -4 -27 -4 -29 -1 -4 -63 28 -78 40 -10 8 -8 14 7
27 29 24 140 235 140 265 0 14 3 26 6 26 4 0 31 -14 60 -31z m2114 -1 c0 -27
134 -254 158 -267 19 -11 20 -10 -29 -39 -46 -28 -59 -28 -59 0 0 28 -115 227
-147 254 l-25 22 43 26 c54 32 59 32 59 4z m-120 -96 c14 -20 26 -40 28 -44 2
-4 -15 -7 -38 -6 -23 0 -46 -4 -51 -9 -11 -11 71 -198 101 -230 l21 -22 -47
-20 c-57 -26 -63 -26 -58 -3 5 16 -77 216 -96 236 -5 5 -24 -6 -45 -27 -20
-20 -37 -31 -39 -24 -2 7 -8 29 -14 50 l-10 38 76 35 c42 18 91 40 107 48 40
20 37 21 65 -22z m-1596 -79 c33 -15 62 -28 64 -29 2 -1 -33 -68 -44 -83 -2
-2 -20 11 -40 28 -25 22 -44 31 -62 29 -42 -5 -37 -30 13 -62 44 -28 75 -69
75 -101 0 -31 -41 -95 -70 -110 -41 -21 -66 -19 -135 13 l-60 27 9 53 c9 56
19 64 36 31 14 -26 68 -59 97 -59 12 0 27 9 33 19 11 22 -3 42 -50 66 -58 30
-75 87 -45 145 17 33 58 59 94 60 13 0 51 -12 85 -27z m1316 -51 l0 -49 -54 5
c-47 4 -55 2 -70 -19 -24 -35 -21 -109 7 -150 34 -51 78 -52 136 -3 22 19 32
22 35 12 2 -7 9 -28 15 -47 6 -19 10 -35 9 -36 -140 -68 -217 -54 -270 50 -29
56 -34 150 -11 194 31 59 71 78 191 90 8 1 12 -15 12 -47z m-1104 -12 c55 -11
108 -22 119 -24 17 -5 20 -12 17 -56 -2 -27 -6 -50 -8 -50 -1 0 -20 11 -40 25
-20 14 -40 25 -44 25 -12 0 -53 -219 -46 -251 6 -31 5 -31 -25 -25 -17 3 -37
6 -43 6 -6 0 -17 4 -25 9 -12 8 -12 12 -2 25 7 9 24 66 37 128 18 87 21 114
11 120 -12 9 -47 5 -79 -7 -16 -6 -15 -1 5 44 12 28 23 51 23 51 1 0 46 -9
100 -20z m800 -92 c0 -40 2 -105 5 -144 3 -50 0 -79 -11 -98 -40 -75 -184 -75
-218 0 -7 15 -19 76 -27 137 -8 60 -20 116 -26 124 -16 19 -7 25 48 30 l48 5
1 -89 c1 -121 10 -160 39 -179 23 -15 27 -15 51 1 26 17 26 17 19 109 -4 50
-13 108 -20 128 -7 21 -10 40 -7 43 3 3 26 5 51 5 l46 0 1 -72z m-405 42 c69
-19 90 -128 34 -180 l-23 -22 25 -56 c14 -32 32 -65 40 -74 15 -17 12 -18 -48
-18 l-65 0 3 33 c5 45 -28 97 -63 97 l-27 0 6 -66 5 -66 -30 6 c-17 3 -41 6
-55 6 -21 0 -22 2 -13 20 17 33 26 296 10 315 -11 13 -2 15 76 15 49 0 105 -5
125 -10z"/>
<path d="M3430 4810 c-1 -3 32 -119 72 -257 l73 -253 337 0 338 0 39 -36 c68
-61 78 -146 28 -223 -45 -68 -60 -71 -370 -71 l-275 0 -11 -32 c-5 -18 -58
-202 -116 -408 -58 -206 -108 -383 -111 -394 -6 -18 3 -19 352 -13 374 6 464
14 624 58 205 57 367 174 440 319 40 80 77 205 91 306 14 108 6 333 -16 422
-78 320 -247 470 -625 554 -84 18 -139 22 -483 27 -213 3 -387 4 -387 1z m785
-195 c192 -34 314 -84 400 -166 61 -57 94 -116 127 -219 21 -67 23 -94 23
-260 -1 -200 -11 -259 -63 -370 -75 -159 -280 -261 -583 -289 -126 -12 -449
-15 -449 -4 0 3 30 113 67 244 l66 238 231 3 c226 3 232 4 287 29 112 53 177
138 200 261 10 57 10 76 -5 135 -26 109 -82 178 -186 234 -44 23 -54 24 -334
29 l-289 5 -19 65 c-10 36 -18 71 -18 79 0 20 417 9 545 -14z"/>
<path d="M5125 1374 c-52 -18 -85 -56 -85 -97 1 -76 67 -157 129 -157 21 0
111 44 111 55 0 2 -5 15 -11 29 l-12 25 -34 -29 c-42 -37 -62 -38 -96 -2 -54
57 -42 119 25 131 35 6 36 7 25 32 -12 26 -13 26 -52 13z"/>
<path d="M4812 1247 c-28 -11 -31 -14 -18 -27 15 -17 76 -177 76 -202 0 -14
11 -12 80 10 57 19 79 30 75 40 -3 8 -5 26 -5 40 0 26 0 26 -15 5 -17 -24 -83
-50 -95 -37 -16 18 -62 155 -56 169 6 17 2 18 -42 2z"/>
<path d="M4597 1203 c-22 -4 -27 -8 -21 -21 15 -36 45 -188 41 -210 -3 -17 0
-21 12 -18 9 3 46 10 84 17 l67 11 0 34 c0 34 -1 34 -23 20 -12 -9 -38 -17
-57 -18 l-34 -3 -17 84 c-9 47 -15 91 -12 98 3 7 1 12 -3 12 -5 -1 -22 -4 -37
-6z"/>
<path d="M3419 6343 c-17 -4 -15 -12 26 -181 5 -20 10 -23 38 -17 51 11 72 38
70 89 -2 50 -24 101 -48 110 -18 6 -60 6 -86 -1z"/>
<path d="M3060 6194 c0 -12 3 -42 6 -67 l7 -45 33 16 c19 8 34 18 34 21 -1 3
-19 26 -40 51 -33 37 -40 41 -40 24z"/>
<path d="M2415 5809 c-11 -7 -28 -18 -37 -27 -21 -18 -17 -25 67 -113 l59 -62
28 32 c39 44 37 79 -9 129 -41 45 -77 58 -108 41z"/>
<path d="M2570 2114 c-80 -68 -78 -164 5 -164 43 0 115 76 115 122 0 67 -63
89 -120 42z"/>
<path d="M5240 2142 c-57 -18 -66 -77 -21 -139 48 -67 119 -75 141 -17 14 37
-2 83 -43 121 -36 34 -55 42 -77 35z"/>
<path d="M3795 1691 c-3 -2 -5 -19 -5 -37 0 -28 4 -32 35 -38 48 -9 77 8 73
42 -3 24 -8 28 -51 32 -26 4 -50 4 -52 1z"/>
</g>
</svg>
